# xmcd
#
# Track frame offsets: 
#        182
#        33817
#        68095
#        97095
#        111840
#        137837
#        179527
#        193627
#        216605
#        254087
#        284222
#        312605
#        327515
#
# Disc length: 4503 seconds
#
# Revision: 2
# Processed by: cddbd v1.5.2PL0 Copyright (c) Steve Scherf et al.
# Submitted via: ExactAudioCopyFreeDBPlugin 1.0
#
DISCID=de11950d
DTITLE=Livin' Blues - Live '75
DYEAR=1975
DGENRE=Blues
TTITLE0=Black Spider Woman
TTITLE1=I'm A Rambler
TTITLE2=Hoochie Coochie Man
TTITLE3=Crazy Joe
TTITLE4=I Wonder
TTITLE5=L.B.Boogie
TTITLE6=Boney Maroney
TTITLE7=Rock and Roll Hoochie Coo (bonus)
TTITLE8=I'm Coming Home (bonus)
TTITLE9=See My Baby Drive (bonus)
TTITLE10=Back Stage (bonus)
TTITLE11=Boogie Woogie Woman (bonus)
TTITLE12=Ricochet (bonus)
EXTD=YEAR: 1975
EXTT0=
EXTT1=
EXTT2=
EXTT3=
EXTT4=
EXTT5=
EXTT6=
EXTT7=
EXTT8=
EXTT9=
EXTT10=
EXTT11=
EXTT12=
PLAYORDER=
